<?xml version="1.0" ?><!DOCTYPE svg  PUBLIC '-//W3C//DTD SVG 1.1//EN'  'http://www.w3.org/Graphics/SVG/1.1/DTD/svg11.dtd'><svg height="512px" style="enable-background:new 0 0 512 512;" version="1.1" viewBox="0 0 512 512" width="512px" xml:space="preserve" xmlns="http://www.w3.org/2000/svg" xmlns:xlink="http://www.w3.org/1999/xlink"><g id="C_-_7_x2C__presentation_x2C__Analytics_x2C__board_x2C__business"><g><path d="M72.07,126.984h22.437h331.961h13.467c9.779,0,17.734-7.908,17.734-17.63c0-9.722-7.955-17.632-17.734-17.632h-165.99    h-35.89H72.07c-9.78,0-17.737,7.91-17.737,17.632C54.333,119.076,62.29,126.984,72.07,126.984z"/><path d="M332.061,174.84c-26.769,2.246-48.162,23.524-50.432,50.154h50.432V174.84z"/><path d="M292.458,262.644c0.517,0.685,1.046,1.356,1.593,2.016c0.133,0.161,0.275,0.313,0.41,0.472    c0.422,0.498,0.846,0.994,1.284,1.477c0.228,0.249,0.466,0.487,0.697,0.732c0.36,0.381,0.718,0.765,1.087,1.135    c0.262,0.262,0.533,0.513,0.799,0.769c0.354,0.341,0.707,0.685,1.07,1.016c0.285,0.259,0.577,0.508,0.867,0.762    c0.359,0.313,0.718,0.629,1.084,0.935c0.303,0.251,0.613,0.492,0.92,0.737c0.368,0.292,0.735,0.584,1.11,0.868    c0.317,0.239,0.643,0.472,0.967,0.705c0.377,0.272,0.755,0.544,1.14,0.807c0.33,0.227,0.666,0.445,1.004,0.665    c0.389,0.254,0.779,0.507,1.176,0.751c0.342,0.211,0.688,0.416,1.037,0.621c0.4,0.235,0.803,0.468,1.21,0.692    c0.354,0.197,0.712,0.389,1.071,0.577c0.411,0.217,0.826,0.428,1.244,0.635c0.363,0.18,0.729,0.356,1.098,0.527    c0.424,0.198,0.852,0.39,1.281,0.577c0.372,0.163,0.745,0.322,1.121,0.477c0.438,0.18,0.877,0.351,1.319,0.519    c0.38,0.145,0.759,0.287,1.142,0.424c0.449,0.16,0.903,0.31,1.358,0.458c0.384,0.126,0.768,0.252,1.155,0.369    c0.465,0.14,0.934,0.269,1.404,0.397c0.387,0.104,0.771,0.213,1.161,0.311c0.48,0.12,0.966,0.227,1.452,0.334    c0.387,0.086,0.771,0.176,1.162,0.254c0.501,0.1,1.008,0.184,1.514,0.27c0.381,0.065,0.759,0.136,1.143,0.192    c0.537,0.08,1.08,0.142,1.621,0.206c0.359,0.043,0.715,0.093,1.076,0.129c0.606,0.061,1.219,0.099,1.83,0.139    c0.304,0.021,0.603,0.051,0.908,0.066c0.917,0.045,1.842,0.069,2.771,0.069c30.512,0,55.333-24.695,55.333-55.052    c0-0.924-0.024-1.844-0.07-2.757c-0.016-0.307-0.046-0.611-0.067-0.917c-0.039-0.604-0.078-1.208-0.138-1.806    c-0.036-0.361-0.088-0.717-0.131-1.075c-0.063-0.538-0.126-1.077-0.206-1.611c-0.057-0.379-0.128-0.752-0.191-1.128    c-0.088-0.507-0.174-1.016-0.273-1.518c-0.078-0.383-0.167-0.762-0.252-1.143c-0.109-0.488-0.217-0.976-0.339-1.458    c-0.099-0.384-0.206-0.764-0.312-1.146c-0.13-0.471-0.26-0.942-0.401-1.407c-0.117-0.381-0.243-0.759-0.367-1.137    c-0.149-0.458-0.303-0.915-0.466-1.366c-0.135-0.376-0.277-0.749-0.42-1.12c-0.171-0.446-0.345-0.89-0.527-1.329    c-0.153-0.37-0.313-0.736-0.473-1.101c-0.19-0.434-0.387-0.864-0.588-1.292c-0.17-0.36-0.344-0.719-0.521-1.075    c-0.211-0.424-0.428-0.844-0.65-1.261c-0.186-0.349-0.373-0.696-0.566-1.041c-0.23-0.415-0.47-0.823-0.711-1.231    c-0.201-0.337-0.402-0.674-0.609-1.006c-0.253-0.405-0.514-0.804-0.775-1.202c-0.213-0.323-0.426-0.647-0.646-0.965    c-0.273-0.396-0.555-0.785-0.839-1.174c-0.226-0.308-0.45-0.619-0.681-0.922c-0.297-0.388-0.603-0.769-0.908-1.148    c-0.234-0.291-0.465-0.585-0.705-0.87c-0.322-0.385-0.656-0.761-0.99-1.137c-0.237-0.269-0.471-0.542-0.715-0.805    c-0.354-0.386-0.721-0.759-1.086-1.134c-0.236-0.242-0.467-0.489-0.707-0.728c-0.405-0.4-0.824-0.789-1.241-1.177    c-0.213-0.199-0.42-0.403-0.636-0.598c-0.549-0.495-1.109-0.973-1.677-1.445c-0.095-0.08-0.187-0.164-0.282-0.243    c-0.67-0.549-1.352-1.083-2.047-1.601c-0.174-0.129-0.354-0.249-0.527-0.376c-0.525-0.38-1.05-0.76-1.588-1.124    c-0.26-0.175-0.526-0.339-0.788-0.509c-0.464-0.302-0.927-0.605-1.398-0.893c-0.298-0.181-0.604-0.353-0.905-0.528    c-0.448-0.261-0.895-0.523-1.349-0.772c-0.325-0.176-0.655-0.343-0.983-0.514c-0.443-0.23-0.887-0.463-1.336-0.682    c-0.345-0.167-0.694-0.325-1.042-0.486c-0.444-0.205-0.889-0.41-1.34-0.603c-0.359-0.155-0.725-0.3-1.088-0.448    c-0.449-0.182-0.899-0.362-1.354-0.533c-0.373-0.139-0.75-0.271-1.125-0.402c-0.455-0.159-0.91-0.315-1.369-0.461    c-0.386-0.124-0.773-0.241-1.162-0.356c-0.461-0.136-0.923-0.268-1.389-0.393c-0.396-0.106-0.793-0.207-1.191-0.305    c-0.467-0.114-0.934-0.221-1.404-0.323c-0.406-0.088-0.814-0.172-1.224-0.25c-0.472-0.092-0.945-0.175-1.42-0.253    c-0.415-0.069-0.83-0.136-1.247-0.195c-0.479-0.068-0.961-0.127-1.443-0.183c-0.421-0.049-0.842-0.097-1.265-0.137    c-0.164-0.015-0.329-0.023-0.493-0.038v54.839c0,2.588-2.098,4.686-4.686,4.686h-55.117c0.014,0.161,0.022,0.325,0.037,0.486    c0.039,0.415,0.088,0.828,0.137,1.239c0.057,0.485,0.115,0.969,0.184,1.45c0.061,0.413,0.128,0.823,0.196,1.232    c0.08,0.475,0.163,0.948,0.255,1.418c0.08,0.408,0.166,0.814,0.254,1.218c0.102,0.464,0.209,0.927,0.322,1.387    c0.1,0.403,0.202,0.804,0.311,1.203c0.123,0.455,0.254,0.907,0.389,1.357c0.118,0.395,0.238,0.789,0.365,1.18    c0.145,0.447,0.297,0.89,0.453,1.332c0.137,0.386,0.273,0.772,0.418,1.154c0.166,0.438,0.34,0.872,0.518,1.304    c0.153,0.376,0.307,0.753,0.467,1.125c0.188,0.431,0.386,0.855,0.584,1.281c0.168,0.363,0.336,0.729,0.513,1.088    c0.21,0.425,0.431,0.844,0.651,1.263c0.183,0.349,0.361,0.7,0.553,1.045c0.233,0.423,0.48,0.837,0.725,1.253    c0.194,0.33,0.383,0.664,0.584,0.988c0.263,0.43,0.542,0.849,0.817,1.27c0.198,0.301,0.388,0.607,0.591,0.904    c0.316,0.464,0.648,0.915,0.979,1.368C292.106,262.153,292.277,262.403,292.458,262.644z"/><path d="M269.26,59.815c0-7.266-5.947-13.178-13.257-13.178c-7.315,0-13.262,5.912-13.262,13.178v22.536h26.519V59.815z"/><path d="M471.324,455.992h-60.582l-116.127-123.84h127.168V136.355H99.193v195.797h125.976L92.498,455.992H40.676    c-2.587,0-4.686,2.098-4.686,4.686s2.098,4.686,4.686,4.686h430.648c2.588,0,4.686-2.098,4.686-4.686    S473.912,455.992,471.324,455.992z M397.895,455.992H265.174v-123.84h16.595L397.895,455.992z M336.746,165.258    c35.678,0,64.704,28.9,64.704,64.421c0,35.522-29.026,64.423-64.704,64.423s-64.703-28.9-64.703-64.423    C272.043,194.158,301.068,165.258,336.746,165.258z M193.225,158.268h17.918v17.833h-17.918V158.268z M157.335,158.268h17.918    v17.833h-17.918V158.268z M121.449,158.268h17.918v17.833h-17.918V158.268z M121.423,207.136h71.776    c2.588,0,4.686,2.097,4.686,4.686c0,2.588-2.098,4.685-4.686,4.685h-71.776c-2.587,0-4.686-2.097-4.686-4.685    C116.738,209.233,118.836,207.136,121.423,207.136z M121.423,237.67h125.609c2.588,0,4.686,2.098,4.686,4.686    s-2.098,4.686-4.686,4.686H121.423c-2.587,0-4.686-2.098-4.686-4.686S118.836,237.67,121.423,237.67z M116.738,271.953    c0-2.588,2.098-4.686,4.686-4.686h125.609c2.588,0,4.686,2.098,4.686,4.686s-2.098,4.686-4.686,4.686H121.423    C118.836,276.639,116.738,274.541,116.738,271.953z M238.902,332.152h16.901v123.84H106.231L238.902,332.152z"/></g></g><g id="Layer_1"/></svg>