<?xml version="1.0" ?><!DOCTYPE svg  PUBLIC '-//W3C//DTD SVG 1.1//EN'  'http://www.w3.org/Graphics/SVG/1.1/DTD/svg11.dtd'><svg height="512px" style="enable-background:new 0 0 512 512;" version="1.1" viewBox="0 0 512 512" width="512px" xml:space="preserve" xmlns="http://www.w3.org/2000/svg" xmlns:xlink="http://www.w3.org/1999/xlink"><g id="_x31_88_x2C__settings_x2C__App_x2C__installation_x2C__maintenance_x2C__service"><g><path d="M316.966,274.301l-32.579,32.578l121.769,121.767l32.576-32.577    L316.966,274.301z M276.644,304.297l37.741-37.74c1.423-1.424,3.737-1.424,5.162,0l124.348,124.349l32.016-32.015L317.826,200.808    c-0.83-0.86-1.246-2.077-1.01-3.323c4.926-23.143,4.006-47.265-2.729-69.992c-6.498-21.926-18.396-42.606-35.724-59.904    c-34.507-34.536-84.203-48.837-131.823-38.066l104.111,104.083c1.425,1.425,1.425,3.738,0,5.163L148.855,240.565    c-1.395,1.425-3.739,1.425-5.134,0L39.61,136.453c-10.771,47.621,3.531,97.288,38.066,131.824    c17.328,17.298,37.978,29.226,59.904,35.693c22.697,6.735,46.73,7.654,69.814,2.789c1.216-0.297,2.551,0,3.5,0.949    l158.111,158.112l31.986-32.014L276.644,309.46C275.22,308.035,275.22,305.721,276.644,304.297z M131.676,104.676    c-4.303,0-8.635,1.662-11.958,4.955c-3.292,3.293-4.924,7.625-4.924,11.957s1.632,8.664,4.924,11.986    c3.324,3.294,7.656,4.926,11.958,4.926c4.271,0,8.514-1.572,11.808-4.747l0.179-0.179c3.292-3.322,4.954-7.654,4.954-11.986    c0-4.303-1.662-8.664-4.954-11.957C140.34,106.338,136.007,104.676,131.676,104.676z M114.585,104.498    c4.719-4.747,10.92-7.092,17.091-7.092c6.2,0,12.401,2.345,17.12,7.063c4.747,4.746,7.091,10.947,7.091,17.119    c0,6.201-2.344,12.402-7.061,17.119l-0.269,0.238c-4.687,4.568-10.769,6.854-16.881,6.854c-6.171,0-12.373-2.373-17.091-7.092    c-4.717-4.717-7.091-10.918-7.091-17.119C107.494,115.416,109.868,109.215,114.585,104.498z M101.858,91.77l-22.55,40.618    l41.628,41.598l40.587-22.55l22.55-40.617L142.475,69.19L101.858,91.77z M193.568,398.737c-3.324-3.322-7.923-5.37-12.996-5.37    c-4.985,0-9.524,1.988-12.818,5.192l-0.177,0.178c-3.323,3.323-5.401,7.922-5.401,12.996c0,5.104,2.078,9.702,5.371,12.995    c3.324,3.353,7.921,5.4,13.025,5.4c5.073,0,9.672-2.077,12.996-5.4c3.322-3.293,5.369-7.892,5.369-12.995    C198.938,406.659,196.89,402.061,193.568,398.737z M180.572,386.068c7.091,0,13.5,2.879,18.158,7.507    c4.627,4.657,7.507,11.067,7.507,18.158s-2.879,13.5-7.537,18.158c-4.629,4.657-11.037,7.536-18.128,7.536    c-7.063,0-13.501-2.879-18.128-7.536c-4.689-4.658-7.566-11.097-7.566-18.158c0-7.091,2.877-13.501,7.537-18.158l0.237-0.208    C167.28,388.857,173.629,386.068,180.572,386.068z M186.209,348.477h-11.274v11.304c1.128-0.118,2.255-0.208,3.413-0.267h0.087    h0.209h0.088h0.089h0.06l0.089-0.029h0.088h0.06h0.09l0,0h0.06h0.087h0.09h0.06h0.089h0.06h0.088h0.06h0.09l0,0h0.089h0.058h0.09    h0.06h0.089h0.058h0.089h0.06h0.089h0.06h0.087h0.06h0.089h0.089h0.058h0.089h0.06h0.089l0,0h0.058h0.089h0.09h0.06h0.088h0.06    h0.089h0.06h0.06h0.028h0.089h0.06h0.09l0.087,0.029h0.06h0.09h0.06h0.237h0.089c1.157,0.059,2.285,0.148,3.412,0.267V348.477z     M229.29,370.966l-7.951-7.951l-8.01,8.011l0.326,0.268l0.147,0.118l0.06,0.06l0.06,0.029l0.06,0.06l0,0l0.058,0.06l0.089,0.059    l0.06,0.061l0.06,0.029l0.06,0.059l0.03,0.029l0.028,0.03l0.119,0.119l0.06,0.029l0.06,0.06l0.06,0.029v0.03l0.088,0.06    l0.239,0.207l0,0l0.058,0.06c0.892,0.771,1.722,1.513,2.494,2.313c0.83,0.832,1.662,1.752,2.521,2.73l0.03,0.029l0.03,0.029    l0.03,0.061l0.058,0.059l0.06,0.06l0.06,0.06l0.06,0.059l0.03,0.06l0.06,0.06v0.029l0.058,0.029l0.06,0.09l0.03,0.059l0.06,0.06    l0.06,0.06l0.06,0.06l0.028,0.06l0.06,0.059l0,0l0.386,0.476L229.29,370.966z M243.857,417.37v-11.244h-11.304    c0.089,1.038,0.179,2.106,0.238,3.174v0.06v0.327v0.089l0.03,0.06v0.088l0,0v0.06v0.089v0.09v0.059v0.09v0.059v0.089v0.089v0.06    v0.089v0.06v0.09h0.028v0.059v0.09v0.088v0.06v0.089v0.06l0,0v0.445v0.475v0.06v0.089v0.06l0,0v0.088v0.061l-0.028,0.147v0.089    v0.149v0.089v0.06l0,0v0.089v0.089v0.059v0.09v0.059v0.09v0.059l-0.03,0.09v0.029v0.059v0.06v0.089v0.148v0.09l-0.03,0.088v0.06    c-0.03,1.039-0.119,2.019-0.208,3.026H243.857z M221.339,460.452l7.951-7.952l-7.98-7.981c-0.712,0.831-1.425,1.662-2.136,2.463    l-0.06,0.06l-0.06,0.06l-0.03,0.029l-0.089,0.089l-0.03,0.06l-0.058,0.059l-0.119,0.119l0,0l-0.03,0.06l-0.06,0.06l-0.06,0.06    l-0.058,0.028l-0.06,0.06l-0.03,0.061l0,0l-0.06,0.059l-0.06,0.06l-0.06,0.06l-0.028,0.059l-0.06,0.03l-0.03,0.029l-0.03,0.03    l-0.06,0.059l-0.03,0.06l-0.06,0.06l-0.058,0.059l-0.06,0.03v0.029l-0.03,0.03l-0.06,0.059l-0.06,0.06l-0.06,0.06l-0.058,0.029    l-0.03,0.06l0,0l-0.06,0.06l-0.386,0.356l-0.03,0.029v0.029l-0.177,0.148l-0.06,0.06l-0.06,0.059l-0.03,0.06l-0.06,0.03    l-0.06,0.06l0,0l-0.058,0.059l-0.06,0.06l-0.06,0.059l-0.06,0.03l-0.06,0.06l-0.03,0.06l-0.118,0.089l0,0l-0.06,0.06l-0.06,0.059    c-0.89,0.802-1.779,1.603-2.729,2.345L221.339,460.452z M174.935,475.02h11.274v-11.305c-1.187,0.119-2.373,0.208-3.59,0.268    h-0.058h-0.089h-0.089l0,0h-0.06h-0.087h-0.06h-0.09l-0.089,0.03h-0.06h-0.088h-0.06h-0.089h-0.09h-0.058h-0.06h-0.03h-0.06    h-0.089h-0.058h-0.089h-0.06h-0.089l0,0h-0.444h-0.445h-0.09h-0.058h-0.089l0,0h-0.06h-0.089h-0.147h-0.089h-0.149h-0.087h-0.06    l0,0h-0.09l-0.06-0.03h-0.088h-0.06h-0.089h-0.089h-0.058h-0.089h-0.03h-0.03h-0.09l-0.087-0.029h-0.149h-0.089h-0.06h-0.088    h-0.089l0,0l-0.06-0.03h-0.09c-0.949-0.029-1.869-0.118-2.788-0.208V475.02z M131.854,452.5l7.951,7.952l8.012-7.981l-0.979-0.831    h-0.03l-0.533-0.475l-0.06-0.03l-0.179-0.178l-0.06-0.029l-0.058-0.06l-0.06-0.06l-0.03-0.029l-0.03-0.03l-0.06-0.059l-0.06-0.03    l-0.058-0.06l-0.06-0.059l-0.06-0.029v-0.03l-0.06-0.06l-0.06-0.029c-0.623-0.563-1.216-1.127-1.779-1.691    c-0.565-0.563-1.128-1.157-1.691-1.78l-0.03-0.029v-0.03l-0.207-0.236l-0.06-0.061l-0.06-0.059l-0.06-0.06l-0.03-0.029l-0.03-0.03    l-0.028-0.059l-0.06-0.06l-0.06-0.06l-0.06-0.06l-0.06-0.06l-0.03-0.059l-0.058-0.06l-0.03-0.029l-0.03-0.03l-0.06-0.059    l-0.03-0.06l-0.06-0.06l-0.118-0.119l-0.03-0.088l-0.06-0.06l-0.119-0.119l-0.06-0.06l-0.147-0.178l-0.06-0.059l-0.03-0.061    v-0.029l-0.386-0.475L131.854,452.5z M147.49,442.204l1.276,1.336l1.335,1.306l0.06,0.029l0.028,0.059l0.119,0.09l0.03,0.059    l0.06,0.03l0.06,0.06l0.03,0.029l0.058,0.06l0.06,0.029l0.03,0.06h0.03l0.03,0.03l0.06,0.059l0.088,0.09l0.06,0.028l0.03,0.06    l0.06,0.03l0.06,0.029v0.03l0.03,0.029l0.06,0.029l0.088,0.09l0.06,0.059l0.03,0.03l0.119,0.089l0,0l0.028,0.029l0.269,0.208    l0.03,0.029l0.86,0.712l0.03,0.03l0,0l0.06,0.029l0.326,0.267l0.03,0.03h0.028l0.03,0.029l0.06,0.06l0.06,0.03l0.06,0.029    l0.03,0.06l0.06,0.029l0.058,0.03l0.03,0.028l0.03,0.03l0.06,0.029l0.06,0.061l0.03,0.029l0.06,0.029l0.058,0.06l0.06,0.029    l0.06,0.03v0.029l0.06,0.029l0.03,0.03l0.06,0.029l0.058,0.06l0.06,0.029l0.06,0.029l0.06,0.061l0.06,0.029l0,0l0.03,0.029    l0.058,0.06l0.06,0.029l0.06,0.03l0.06,0.059l0.06,0.03l0.058,0.029l0.03,0.03l0.03,0.029l0.06,0.029l0.03,0.03l0.089,0.06    l0.03,0.029l0.058,0.03l0.06,0.059l0.06,0.03l0.03,0.029h0.03l0.06,0.059l0.06,0.03l0.058,0.029l0.06,0.06l0.09,0.06    c6.824,4.629,15.071,7.299,23.854,7.566h0.089h0.476h0.088h0.505c12.017,0,22.965-4.718,31.035-12.403l0,0l0.623-0.593l0.03-0.06    l0.06-0.059l0.06-0.06l0,0l0.058-0.03l0.03-0.06c7.833-7.892,12.759-18.662,13.085-30.56v-0.09v-0.475v-0.089v-0.504v-0.415v-0.09    v-0.059v-0.06c-0.03-2.463-0.267-4.896-0.683-7.239l-0.03-0.06v-0.148l-0.03-0.06v-0.03v-0.028l-0.03-0.06    c-1.126-6.231-3.59-12.017-7.031-17.062l-0.03-0.029l-0.03-0.059l-0.03-0.06l-0.03-0.06l-0.058-0.06v-0.03l-0.03-0.029    l-0.06-0.089l-0.06-0.06l-0.06-0.118l-0.06-0.03l-0.058-0.118l0,0l-0.03-0.06l-0.06-0.029l-0.03-0.06l-0.03-0.06l-0.03-0.059    l-0.06-0.029l-0.03-0.061l-0.03-0.059l0,0l-0.028-0.06l-0.06-0.03l-0.03-0.059l-0.03-0.06l-0.06-0.06l-0.03-0.059l-0.03-0.03    l-0.03-0.06l-0.03-0.029l-0.028-0.029l-0.03-0.03l-0.03-0.06l-0.06-0.059l-0.03-0.061l-0.03-0.029l-0.03-0.059l-0.06-0.06    l-0.03-0.03v-0.029l-0.028-0.029l-0.06-0.06l-0.149-0.179l-0.03-0.059l-0.03-0.06l-0.03-0.03l-0.028-0.029    c-0.595-0.741-1.218-1.482-1.871-2.225l-0.03-0.03l-0.058-0.06l-0.03-0.059l-0.06-0.029l-0.03-0.03l-0.03-0.029l-0.03-0.06    l-0.06-0.029l-0.03-0.06l-0.058-0.06l-0.03-0.029l-0.06-0.06l-0.06-0.06v-0.029l-0.03-0.029l-0.06-0.03l-0.03-0.06l-0.058-0.059    l-0.06-0.03l-0.03-0.06l-0.06-0.059l-0.296-0.297l-0.06-0.06l-0.06-0.089h-0.03l-0.058-0.06l-0.03-0.06l-0.267-0.267l-0.268-0.237    l-0.058-0.06l-0.03-0.06l0,0l-0.119-0.089l-0.06-0.06l-0.03-0.059l-0.06-0.03l-0.088-0.118h-0.03l-0.089-0.09l-0.06-0.059    l-0.03-0.029l-0.058-0.06l-0.06-0.03l-0.06-0.059l-0.03-0.03v-0.03l-0.06-0.029l-0.06-0.059l-0.028-0.03l-0.06-0.06l-0.06-0.059    l-0.03-0.029l-0.06-0.061h-0.03l-0.03-0.029l-0.058-0.059l-0.03-0.03l-0.06-0.06c-0.832-0.742-1.691-1.483-2.581-2.166h-0.03    l-0.03-0.029l-1.009-0.771l-0.06-0.029l-0.06-0.061l-0.058-0.029l-0.03-0.029h-0.03l-0.06-0.059l-0.06-0.03l-0.03-0.06    l-0.06-0.029l-0.058-0.029l-0.06-0.03l-0.06-0.06l-0.06-0.029l-0.06-0.029l-0.058-0.061l-0.06-0.029l-0.06-0.029l-0.03-0.06    l-0.06-0.03l-0.06-0.029l0,0l-0.058-0.059l-0.06-0.029l-0.06-0.03l-0.06-0.06l-0.089-0.029l-0.058-0.06    c-6.796-4.599-14.954-7.27-23.677-7.565h-0.06h-0.06h-0.06h-0.03h-0.06h-0.058h-0.089h-0.06h-0.089h-0.058h-0.06h-0.06h-0.03    h-0.06l-0.089-0.03h-0.058h-0.06h-0.089h-0.06h-0.087h-0.06h-0.089h-0.06h-0.06h-0.088h-0.06h-0.089l-0.06,0.03h-0.06h-0.028    h-0.06h-0.06h-0.089h-0.06h-0.058h-0.089h-0.06h-0.06h-0.03h-0.06h-0.058h-0.089c-11.839,0.355-22.521,5.281-30.352,13.055    l-0.03,0.059l-0.06,0.03l0,0l-0.06,0.06l-0.06,0.059c-7.803,7.863-12.757,18.634-13.055,30.561v0.06v0.505v0.059v0.505v0.444v0.06    v0.089v0.06c0.03,2.581,0.298,5.074,0.742,7.537v0.028v0.061l0.06,0.326h0.03c1.157,6.111,3.59,11.809,6.972,16.764l0.06,0.059    l0.03,0.06l0.03,0.06l0.03,0.029l0.03,0.03l0.03,0.029l0.03,0.06l0.03,0.059l0.028,0.061l0.06,0.029l0.06,0.118l0.03,0.06    l0.06,0.029v0.03l0.03,0.029l0.03,0.06l0.058,0.059l0.03,0.061l0.03,0.029l0.03,0.059l0.06,0.06l0.03,0.061l0,0l0.03,0.028    l0.03,0.06l0.06,0.06l0.028,0.06l0.03,0.029l0.03,0.06l0.06,0.059l0.03,0.061l0.03,0.029l0,0l0.06,0.06l0.03,0.059l0.177,0.238    l0.06,0.059l0.06,0.09l0.06,0.059l0.058,0.089l0.06,0.061l0.089,0.147l0,0l0.06,0.06l0.06,0.089l0.058,0.059l0.089,0.148    l0.06,0.03v0.029l0.919,1.068l0.03,0.06l0.03,0.06l0.06,0.029v0.029l0.03,0.03l0.058,0.06l0.03,0.029l0.06,0.059l0.03,0.061    l0.06,0.029l0.03,0.059l0.06,0.06l0,0l0.028,0.03l0.06,0.059l0.03,0.06l0.06,0.03l0.03,0.06l0.06,0.059l0.03,0.03l0.058,0.06    l0.03,0.028v0.03l0.06,0.03l0.03,0.06l0.06,0.059L147.49,442.204z M117.286,406.126v11.244h11.304    c-0.119-1.038-0.177-2.106-0.237-3.174v-0.09v-0.297l-0.03-0.088v-0.09v-0.059l0,0v-0.09v-0.059v-0.09v-0.059v-0.089v-0.089v-0.06    v-0.089l-0.03-0.06v-0.09v-0.089v-0.06l0,0v-0.088v-0.061v-0.088v-0.06v-0.089v-0.06l0,0v-0.475v-0.445v-0.06v-0.089v-0.06l0,0    v-0.088v-0.09v-0.148v-0.06l0.03-0.148v-0.089v-0.06v-0.029v-0.059v-0.09v-0.059v-0.09v-0.089v-0.06v-0.088v-0.06v-0.06    l0.03-0.029v-0.09v-0.059v-0.179v-0.06v-0.088v-0.09c0.06-1.009,0.147-2.017,0.237-2.996H117.286z M274.418,197.662    c3.413,3.383,8.546-1.75,5.163-5.162l-5.163-5.133c-3.381-3.412-8.544,1.75-5.162,5.133L274.418,197.662z M295.04,218.283    c3.381,3.383,8.544-1.75,5.162-5.162l-5.162-5.163c-3.383-3.382-8.546,1.78-5.164,5.163L295.04,218.283z M315.66,238.904    c3.383,3.383,8.546-1.781,5.162-5.163l-5.162-5.162c-3.383-3.383-8.545,1.78-5.162,5.162L315.66,238.904z M336.28,259.525    c3.384,3.382,8.546-1.781,5.163-5.163l-5.163-5.163c-3.382-3.382-8.544,1.78-5.163,5.163L336.28,259.525z M356.902,280.146    c3.381,3.382,8.543-1.781,5.162-5.164l-5.162-5.162c-3.383-3.383-8.546,1.78-5.162,5.162L356.902,280.146z M377.521,300.766    c3.384,3.383,8.547-1.779,5.163-5.162l-5.163-5.162c-3.381-3.383-8.545,1.78-5.162,5.162L377.521,300.766z M398.143,321.387    c3.383,3.383,8.546-1.779,5.164-5.162l-5.164-5.162c-3.381-3.383-8.544,1.779-5.162,5.162L398.143,321.387z M418.765,342.008    c3.381,3.383,8.544-1.779,5.162-5.162l-5.162-5.163c-3.323-3.323-8.486,1.84-5.163,5.163L418.765,342.008z M437.339,360.582    c3.381,3.382,8.544-1.781,5.162-5.163l-3.116-3.115c-3.323-3.323-8.486,1.839-5.163,5.163L437.339,360.582z M253.798,166.746    c-3.383-3.412-8.546,1.75-5.133,5.133l5.133,5.162c3.411,3.412,8.543-1.75,5.163-5.162L253.798,166.746z M199.59,272.995    c3.324,3.323,8.486-1.839,5.163-5.163l-5.133-5.162c-3.383-3.383-8.545,1.78-5.162,5.162L199.59,272.995z M220.21,293.616    c3.413,3.382,8.576-1.78,5.163-5.163l-5.163-5.162c-3.352-3.383-8.514,1.779-5.132,5.162L220.21,293.616z M240.833,314.236    c3.381,3.383,8.544-1.779,5.163-5.162l-5.163-5.162c-3.383-3.383-8.546,1.779-5.163,5.162L240.833,314.236z M261.452,334.857    c3.413,3.383,8.546-1.78,5.162-5.162l-5.162-5.163c-3.381-3.382-8.543,1.78-5.162,5.163L261.452,334.857z M282.074,355.479    c3.381,3.383,8.544-1.781,5.162-5.163l-5.162-5.162c-3.384-3.382-8.546,1.75-5.164,5.162L282.074,355.479z M302.694,376.07    c3.383,3.411,8.546-1.752,5.163-5.134l-5.163-5.163c-3.384-3.382-8.546,1.781-5.163,5.163L302.694,376.07z M323.314,396.721    c3.383,3.382,8.545-1.78,5.162-5.164l-5.162-5.162c-3.381-3.383-8.544,1.78-5.162,5.162L323.314,396.721z M343.937,417.341    c3.382,3.383,8.544-1.78,5.162-5.163l-5.162-5.162c-3.384-3.383-8.546,1.78-5.163,5.162L343.937,417.341z M362.509,435.914    c3.413,3.383,8.575-1.779,5.162-5.162l-3.114-3.115c-3.382-3.383-8.516,1.78-5.133,5.162L362.509,435.914z M179,242.049    c-3.413-3.383-8.576,1.781-5.165,5.163l5.134,5.162c3.412,3.382,8.574-1.75,5.163-5.162L179,242.049z M409.952,467.335    c1.988,0,3.62,1.632,3.62,3.65c0,1.987-1.632,3.648-3.62,3.648H199.797c-2.016,0-3.648-1.661-3.648-3.648    c0-2.019,1.632-3.65,3.648-3.65H409.952z M286.88,478.699c2.019,0,3.648,1.632,3.648,3.649s-1.63,3.649-3.648,3.649H141.466    c-1.988,0-3.648-1.632-3.648-3.649s1.66-3.649,3.648-3.649H286.88z M126.602,478.699c2.018,0,3.65,1.632,3.65,3.649    s-1.632,3.649-3.65,3.649h-18.188c-2.016,0-3.648-1.632-3.648-3.649s1.632-3.649,3.648-3.649H126.602z M439.563,476.622    c1.988,0,3.648,1.632,3.648,3.649s-1.66,3.649-3.648,3.649h-68.925c-1.988,0-3.621-1.632-3.621-3.649s1.633-3.649,3.621-3.649    H439.563z M139.804,363.015l-7.951,7.951l7.98,8.012c0.683-0.86,1.396-1.692,2.138-2.493l0.06-0.059l0.058-0.06l0.03-0.03    l0.06-0.089l0.06-0.029l0.06-0.06l0.089-0.118l0,0l0.058-0.06l0.06-0.06l0.06-0.06l0.06-0.059l0.03-0.06l0.03-0.03l0.028-0.029    l0.06-0.029l0.06-0.06l0.03-0.06l0.06-0.059l0.06-0.06l0.03-0.03l0.028-0.029l0.03-0.06l0.06-0.03l0.06-0.059l0.06-0.059    l0.06-0.061l0,0l0.03-0.059l0.058-0.029l0.06-0.061l0.06-0.059l0.03-0.06l0.06-0.03l0,0l0.06-0.059l0.058-0.06l0.03-0.06    l0.06-0.059l0.06-0.029l0.03-0.061h0.03l0.06-0.059l0.028-0.06l0.06-0.03l0.06-0.059l0.06-0.06l0.03-0.03l0.03-0.029l0.06-0.029    l0.028-0.06l0.06-0.06l0.06-0.059l0.06-0.06l0,0l0.06-0.03l0.06-0.059l0.058-0.061l0.06-0.059l0.03-0.029l0.06-0.06l0,0    l0.12-0.118l0.058-0.061l0.06-0.029l0.089-0.089l0.03-0.03l0.06-0.059l0.058-0.029c0.802-0.742,1.632-1.454,2.463-2.137    L139.804,363.015z" style="fill-rule:evenodd;clip-rule:evenodd;"/></g></g><g id="Layer_1"/></svg>