<?xml version="1.0" encoding="UTF-8"?>
<svg version="1.1" xmlns="http://www.w3.org/2000/svg" width="392" height="110">
<path d="M0 0 C3.21628204 1.91072992 5.42418132 4.12474542 7.4375 7.3125 C7.4375 7.9725 7.4375 8.6325 7.4375 9.3125 C8.0975 9.3125 8.7575 9.3125 9.4375 9.3125 C9.664375 8.57 9.89125 7.8275 10.125 7.0625 C12.03957223 3.05101533 14.74685616 1.12296329 18.7109375 -0.77734375 C24.93721821 -2.85574405 32.75703988 -2.8656487 38.8125 -0.1875 C44.34334645 3.14038219 48.58679468 7.58392432 50.515625 13.77050781 C51.7515359 18.96460548 51.68839927 24.06123033 51.6328125 29.375 C51.6299826 30.40689453 51.62715271 31.43878906 51.62423706 32.50195312 C51.61311252 35.77225732 51.58802226 39.04227968 51.5625 42.3125 C51.55246022 44.54036061 51.54333612 46.76822554 51.53515625 48.99609375 C51.51319855 54.43499071 51.4797986 59.87372521 51.4375 65.3125 C49.4575 65.3125 47.4775 65.3125 45.4375 65.3125 C45.43163376 64.756194 45.42576752 64.199888 45.41972351 63.62672424 C45.35546113 57.80201335 45.2709595 51.97783831 45.17504883 46.15356445 C45.14193002 43.98404027 45.11385807 41.81443262 45.09106445 39.64477539 C45.05727788 36.51412611 45.00495022 33.38423274 44.94921875 30.25390625 C44.94282883 29.29416397 44.9364389 28.33442169 44.92985535 27.34559631 C44.77766258 20.26981329 44.18864462 13.13604316 39.0625 7.875 C38.19625 7.359375 37.33 6.84375 36.4375 6.3125 C35.715625 5.879375 34.99375 5.44625 34.25 5 C28.94475327 3.70316191 23.64631334 4.49619942 18.5625 6.375 C13.93807516 10.59138736 12.23504375 15.63347506 11.89160156 21.71875 C11.85075393 23.74969947 11.83054688 25.78114124 11.828125 27.8125 C11.81158875 28.88878662 11.79505249 29.96507324 11.77801514 31.07397461 C11.72971469 34.48687551 11.70820338 37.89933136 11.6875 41.3125 C11.65932542 43.63674092 11.62939593 45.96096128 11.59765625 48.28515625 C11.52396061 53.96085719 11.47221307 59.63643389 11.4375 65.3125 C9.4575 65.3125 7.4775 65.3125 5.4375 65.3125 C5.43203156 64.43712585 5.43203156 64.43712585 5.42645264 63.54406738 C5.38448643 57.44369364 5.31504263 51.34406239 5.22998047 45.24414062 C5.2018384 42.97077884 5.18059039 40.69732045 5.16650391 38.42382812 C5.14498118 35.1466347 5.09828115 31.87059469 5.046875 28.59375 C5.04564636 27.58509888 5.04441772 26.57644775 5.04315186 25.53723145 C4.88830275 17.99533651 3.30702282 12.60401147 -1.6875 6.875 C-6.36420743 4.33331118 -11.38642587 3.63277201 -16.625 4.75390625 C-21.70322415 6.66918475 -24.42290741 9.84213328 -26.64804077 14.66569519 C-27.58336409 17.3728889 -27.83620105 19.4346163 -27.88134766 22.28637695 C-27.90121735 23.24699539 -27.92108704 24.20761383 -27.94155884 25.19734192 C-27.95311005 26.2214769 -27.96466125 27.24561188 -27.9765625 28.30078125 C-27.99592865 29.35911667 -28.0152948 30.41745209 -28.0352478 31.50785828 C-28.09491248 34.88015748 -28.14137693 38.25249106 -28.1875 41.625 C-28.22569181 43.91472823 -28.26474424 46.20444228 -28.3046875 48.49414062 C-28.40060326 54.10013431 -28.48568911 59.70621376 -28.5625 65.3125 C-30.5425 65.3125 -32.5225 65.3125 -34.5625 65.3125 C-34.63884871 58.4807047 -34.69122499 51.64902032 -34.72729492 44.81689453 C-34.74233911 42.4949126 -34.76277945 40.17295888 -34.78881836 37.85107422 C-34.82539345 34.50481177 -34.84227054 31.15892656 -34.85546875 27.8125 C-34.87095261 26.7819751 -34.88643646 25.7514502 -34.90238953 24.68969727 C-34.90408788 17.34134258 -33.73564614 12.05031137 -30 5.625 C-21.91056498 -2.0495922 -10.40199115 -4.72641684 0 0 Z " fill="#282828" transform="translate(182.5625,24.6875)"/>
<path d="M0 0 C0.69738281 0.4125 1.39476562 0.825 2.11328125 1.25 C9.47251502 6.12843745 13.70802833 13.57975544 16 22 C16.26189711 25.18806102 16.23342599 28.35772767 16.1953125 31.5546875 C16.1924826 32.45623566 16.18965271 33.35778381 16.18673706 34.28665161 C16.17559439 37.14957276 16.1505008 40.01217434 16.125 42.875 C16.11496255 44.82291213 16.10583804 46.77082919 16.09765625 48.71875 C16.07567443 53.4792887 16.0411855 58.23959027 16 63 C14.02 63 12.04 63 10 63 C9.9906543 61.8354126 9.98130859 60.6708252 9.97167969 59.47094727 C9.93155172 55.11510151 9.86573131 50.75994521 9.79248047 46.40454102 C9.76440236 44.52605096 9.7431229 42.64744566 9.72900391 40.76879883 C9.70739075 38.05490671 9.66064953 35.34238128 9.609375 32.62890625 C9.60814636 31.80040665 9.60691772 30.97190704 9.60565186 30.11830139 C9.38344595 21.10154194 5.88431706 14.20285573 -0.203125 7.66015625 C-4.92747451 3.29526811 -10.00837486 2.29329658 -16.1875 1.6875 C-23.06156747 2.25094815 -30.19864805 4.92428508 -35 10 C-40.44935835 18.18997132 -43.40583357 26.59279287 -41.53515625 36.44921875 C-39.71819854 43.46977133 -36.80843931 49.34202673 -30.75 53.5703125 C-23.92156013 57.50115782 -17.55886743 59.19454512 -9.69140625 57.50390625 C-4.39343972 55.92255705 -1.07872604 53.68080155 3 50 C3.66 50 4.32 50 5 50 C5.22265625 52.3046875 5.22265625 52.3046875 5 55 C0.53796021 60.02993576 -6.38449086 63.66236491 -13.01171875 64.28125 C-23.39020521 64.57054579 -30.86082521 62.75571185 -38.921875 56.08984375 C-46.13944906 48.83156908 -49.02525457 40.30518123 -49.375 30.25 C-49.20393746 20.17869289 -46.17156067 11.25089209 -39 4 C-27.93004134 -5.07009387 -12.58504154 -7.78958084 0 0 Z " fill="#272727" transform="translate(295,27)"/>
<path d="M0 0 C6.72213691 4.13145534 10.24790158 8.82209186 12.92578125 16.18359375 C13.93854943 21.77519643 14.05736208 27.17867527 14.0234375 32.8359375 C14.02202255 33.73607071 14.0206076 34.63620392 14.01914978 35.56361389 C14.01358785 38.41614212 14.00104252 41.26858956 13.98828125 44.12109375 C13.98326133 46.06445199 13.97869928 48.00781146 13.97460938 49.95117188 C13.96363091 54.69534325 13.94639278 59.43945484 13.92578125 64.18359375 C11.61578125 64.18359375 9.30578125 64.18359375 6.92578125 64.18359375 C6.92031281 63.34580383 6.92031281 63.34580383 6.91473389 62.49108887 C6.87275273 56.65021943 6.80329903 50.8101244 6.71826172 44.96972656 C6.69012758 42.79337326 6.66887565 40.61691922 6.65478516 38.44042969 C6.63325119 35.30221257 6.58654619 32.16519712 6.53515625 29.02734375 C6.53392761 28.06244019 6.53269897 27.09753662 6.53143311 26.10339355 C6.38684054 19.35465754 5.18018369 13.78689354 0.54974365 8.66003418 C-3.72416278 4.80674878 -7.81103574 3.39314773 -13.44921875 2.87109375 C-19.67955381 3.4081916 -24.20053603 4.81371451 -28.44921875 9.55859375 C-33.32150301 15.51965661 -33.40099302 21.32594846 -33.48828125 28.734375 C-33.5076474 29.74831833 -33.52701355 30.76226166 -33.54696655 31.80693054 C-33.60661301 35.03656678 -33.65308826 38.26623895 -33.69921875 41.49609375 C-33.73741224 43.68946843 -33.77646477 45.88282833 -33.81640625 48.07617188 C-33.91230223 53.44518105 -33.9973933 58.81427966 -34.07421875 64.18359375 C-36.38421875 64.18359375 -38.69421875 64.18359375 -41.07421875 64.18359375 C-41.12401345 58.52768201 -41.16012371 52.87190062 -41.18408203 47.21582031 C-41.19408008 45.29555027 -41.20768296 43.37529522 -41.22509766 41.45507812 C-41.24962067 38.67964964 -41.26076406 35.9044241 -41.26953125 33.12890625 C-41.27985382 32.28369415 -41.29017639 31.43848206 -41.30081177 30.56765747 C-41.30267267 20.46505485 -39.80629757 11.97863238 -33.07421875 4.18359375 C-24.12785948 -4.05911929 -10.78580573 -5.69853356 0 0 Z " fill="#3B3B3B" transform="translate(368.07421875,25.81640625)"/>
<path d="M0 0 C1.18372948 0.00848969 1.18372948 0.00848969 2.39137268 0.01715088 C4.88785999 0.03936814 7.38286 0.08953281 9.87890625 0.140625 C11.58135934 0.16070912 13.28383514 0.17895653 14.98632812 0.1953125 C19.13858539 0.23918428 23.28974453 0.30810592 27.44140625 0.390625 C27.44140625 2.040625 27.44140625 3.690625 27.44140625 5.390625 C26.0344751 5.41249878 26.0344751 5.41249878 24.59912109 5.43481445 C21.09871246 5.49609217 17.59906176 5.57028432 14.09912109 5.65307617 C12.58815721 5.68620426 11.07707318 5.71427355 9.56591797 5.73706055 C7.38587543 5.77083181 5.20692186 5.82315396 3.02734375 5.87890625 C1.0635376 5.91818237 1.0635376 5.91818237 -0.93994141 5.95825195 C-4.79719984 6.41913474 -7.26384998 7.36439141 -10.55859375 9.390625 C-12.51655045 12.45525287 -12.56016099 14.30129241 -12.49609375 17.953125 C-11.34677418 22.16729675 -10.12623854 22.9854329 -6.55859375 25.390625 C-3.72405287 26.47007754 -3.72405287 26.47007754 -0.6640625 27.13671875 C0.45677734 27.41708984 1.57761719 27.69746094 2.73242188 27.98632812 C5.06810976 28.54466505 7.40404516 29.1019676 9.74023438 29.65820312 C18.23653571 31.78593017 25.68017839 34.47715156 31.44140625 41.390625 C33.23736113 46.77848963 33.07650571 52.28685803 31.44140625 57.703125 C27.9384818 62.41017972 23.159586 65.18442711 17.44140625 66.390625 C14.60449 66.47426474 11.79322636 66.50684179 8.95703125 66.48828125 C8.14143738 66.4868663 7.32584351 66.48545135 6.48553467 66.48399353 C3.88745413 66.47840803 1.28946062 66.46585821 -1.30859375 66.453125 C-3.07291542 66.44810812 -4.83723844 66.44354554 -6.6015625 66.43945312 C-10.92060631 66.42844335 -15.23958529 66.41118869 -19.55859375 66.390625 C-19.55859375 64.740625 -19.55859375 63.090625 -19.55859375 61.390625 C-18.53499756 61.37604248 -17.51140137 61.36145996 -16.45678711 61.34643555 C-12.63401564 61.28815995 -8.8118153 61.21093079 -4.98950195 61.12817383 C-3.33985715 61.0950614 -1.69010279 61.06698744 -0.0402832 61.04418945 C2.34080393 61.01038967 4.72089931 60.95806496 7.1015625 60.90234375 C7.83101578 60.89595383 8.56046906 60.8895639 9.31202698 60.88298035 C15.11429221 60.71895385 20.1864663 59.64556495 24.44140625 55.390625 C25.61045901 51.52375819 25.50519815 49.58871565 24.25390625 45.703125 C20.80563395 39.4011101 15.98055721 38.39810392 9.44140625 36.390625 C5.40711958 35.31117633 1.34874777 34.32756605 -2.71679688 33.37304688 C-8.96658818 31.81186214 -13.52155794 29.64208563 -17.93359375 24.765625 C-20.39057484 19.66266427 -20.6384593 14.75801638 -18.8984375 9.33203125 C-14.92107809 1.32565842 -8.10898057 -0.22282048 0 0 Z " fill="#171717" transform="translate(71.55859375,23.609375)"/>
<path d="M0 0 C1.8871875 0.0309375 1.8871875 0.0309375 3.8125 0.0625 C3.8125 2.0425 3.8125 4.0225 3.8125 6.0625 C2.3275 6.43375 2.3275 6.43375 0.8125 6.8125 C-7.88401679 9.35996451 -13.38712347 13.17972537 -18.328125 20.828125 C-20.68480396 26.95549031 -20.33273413 36.59714347 -17.6875 42.625 C-13.12732342 49.93399382 -6.41560381 52.70150807 1.6875 54.6171875 C2.38875 54.76414063 3.09 54.91109375 3.8125 55.0625 C3.8125 57.3725 3.8125 59.6825 3.8125 62.0625 C-4.78035316 61.64671678 -11.50720484 59.26275666 -18.0625 53.5625 C-18.76375 52.7375 -19.465 51.9125 -20.1875 51.0625 C-20.88875 50.27875 -21.59 49.495 -22.3125 48.6875 C-26.51310663 42.80665072 -27.72636254 37.70770723 -27.625 30.625 C-27.61597656 29.8721875 -27.60695313 29.119375 -27.59765625 28.34375 C-27.42201403 22.73295674 -26.73095105 18.56148842 -23.1875 14.0625 C-22.60484375 13.29421875 -22.0221875 12.5259375 -21.421875 11.734375 C-15.86404249 4.95119359 -9.15981686 -0.15016093 0 0 Z " fill="#F2981F" transform="translate(36.1875,26.9375)"/>
<path d="M0 0 C2.31 0 4.62 0 7 0 C7 21.78 7 43.56 7 66 C4.69 66 2.38 66 0 66 C0 44.22 0 22.44 0 0 Z " fill="#4B4B4B" transform="translate(121,24)"/>
<path d="M0 0 C0 8.25 0 16.5 0 25 C-8.07692308 23.84615385 -8.07692308 23.84615385 -12 19 C-13.49142111 14.52573668 -13.74270548 10.68085977 -11.8125 6.3125 C-8.07871626 1.54870695 -6.21016561 0 0 0 Z " fill="#F29314" transform="translate(40,45)"/>
<path d="M0 0 C0.66 0.33 1.32 0.66 2 1 C-1.3 4.3 -4.6 7.6 -8 11 C-8 7.0234755 -6.61988497 5.9109833 -4 3 C-1.75 1.1875 -1.75 1.1875 0 0 Z " fill="#4F4F4F" transform="translate(260,28)"/>
<path d="M0 0 C0.99 0.33 1.98 0.66 3 1 C0.36 3.64 -2.28 6.28 -5 9 C-5 4.61031544 -2.87194899 3.23094261 0 0 Z " fill="#4E4E4E" transform="translate(337,28)"/>
<path d="M0 0 C0.66 0.33 1.32 0.66 2 1 C0.02 2.98 -1.96 4.96 -4 7 C-4.66 6.67 -5.32 6.34 -6 6 C-4 4 -2 2 0 0 Z " fill="#454545" transform="translate(158,26)"/>
<path d="M0 0 C0.66 0.33 1.32 0.66 2 1 C-0.31 3.31 -2.62 5.62 -5 8 C-5 5 -5 5 -2.5 2.3125 C-1.675 1.549375 -0.85 0.78625 0 0 Z " fill="#595959" transform="translate(59,26)"/>
</svg>
